<svg xmlns="http://www.w3.org/2000/svg" width="256" height="256" viewBox="0 0 256 256">
  <rect width="256" height="256" rx="60" fill="#242938"/>
  <g transform="translate(0,-5)" fill="#3DDC84">
    <g stroke="#3DDC84" stroke-width="6" stroke-linecap="round">
      <line x1="102" y1="62" x2="90" y2="42"/>
      <line x1="154" y1="62" x2="166" y2="42"/>
    </g>
    <path d="M76 104 A52 52 0 0 1 180 104 Z"/>
    <circle cx="106" cy="82" r="5" fill="#242938"/>
    <circle cx="150" cy="82" r="5" fill="#242938"/>
    <path d="M76 110 H180 V180 A12 12 0 0 1 168 192 H88 A12 12 0 0 1 76 180 Z"/>
    <rect x="52" y="112" width="18" height="62" rx="9"/>
    <rect x="186" y="112" width="18" height="62" rx="9"/>
    <rect x="100" y="176" width="18" height="48" rx="9"/>
    <rect x="138" y="176" width="18" height="48" rx="9"/>
  </g>
</svg>
